<svg width="239" height="73" viewBox="0 0 239 73" fill="none" xmlns="http://www.w3.org/2000/svg">
<path d="M29.308 48.936C28.996 49.196 28.71 49.248 28.45 49.092C28.19 48.988 28.294 48.702 28.762 48.234C29.542 47.454 30.27 46.206 30.946 44.49C31.622 42.722 32.35 40.59 33.13 38.094C33.91 35.598 34.846 32.868 35.938 29.904C37.03 26.888 38.356 23.768 39.916 20.544C41.528 17.32 43.452 14.122 45.688 10.95C45.844 10.742 46.026 10.586 46.234 10.482C46.442 10.326 46.52 10.352 46.468 10.56C46.468 10.612 45.948 11.34 44.908 12.744C43.92 14.148 42.542 15.994 40.774 18.282C39.006 20.518 36.978 22.988 34.69 25.692C32.454 28.396 30.062 31.1 27.514 33.804C25.018 36.508 22.496 39.004 19.948 41.292C17.4 43.528 14.956 45.322 12.616 46.674C10.276 48.026 8.196 48.702 6.376 48.702C3.984 48.702 2.346 48.26 1.462 47.376C0.578 46.44 0.135999 45.504 0.135999 44.568C0.135999 43.84 0.448 43.268 1.072 42.852C1.644 42.384 2.19 42.15 2.71 42.15C3.854 42.15 4.426 42.592 4.426 43.476C4.426 43.944 4.27 44.334 3.958 44.646C3.594 44.906 3.152 45.036 2.632 45.036C2.268 45.036 1.956 44.984 1.696 44.88C1.436 44.724 1.306 44.646 1.306 44.646C1.306 45.322 1.644 46.05 2.32 46.83C2.944 47.61 4.14 48 5.908 48C7.676 48 9.704 47.324 11.992 45.972C14.28 44.62 16.672 42.826 19.168 40.59C21.716 38.302 24.264 35.806 26.812 33.102C29.36 30.398 31.778 27.668 34.066 24.912C36.406 22.104 38.486 19.504 40.306 17.112C42.178 14.668 43.712 12.64 44.908 11.028C46.104 9.416 46.806 8.428 47.014 8.064C47.326 7.648 47.612 7.31 47.872 7.05C48.184 6.79 48.392 6.712 48.496 6.816C48.6 6.92 48.47 7.336 48.106 8.064C47.638 8.948 47.04 10.482 46.312 12.666C45.584 14.798 44.726 17.32 43.738 20.232C42.75 23.144 41.606 26.186 40.306 29.358C39.006 32.53 37.524 35.598 35.86 38.562C34.248 41.526 32.428 44.152 30.4 46.44C30.088 46.752 29.958 46.83 30.01 46.674C30.114 46.466 30.296 46.18 30.556 45.816C30.816 45.452 31.024 45.192 31.18 45.036C32.792 43.528 34.69 41.474 36.874 38.874C39.058 36.274 41.45 33.44 44.05 30.372C46.65 27.252 49.38 24.132 52.24 21.012C55.152 17.892 58.116 15.032 61.132 12.432C64.2 9.832 67.242 7.752 70.258 6.192C73.326 4.58 76.316 3.774 79.228 3.774C81.308 3.774 82.816 4.372 83.752 5.568C84.74 6.712 85.234 8.038 85.234 9.546C85.234 10.95 84.766 12.354 83.83 13.758C82.946 15.11 81.828 16.358 80.476 17.502C79.124 18.646 77.798 19.608 76.498 20.388C75.25 21.116 74.262 21.532 73.534 21.636C73.066 21.688 72.728 21.714 72.52 21.714C72.364 21.662 72.546 21.48 73.066 21.168C73.066 21.168 73.56 20.934 74.548 20.466C75.588 19.946 76.784 19.218 78.136 18.282C79.488 17.294 80.684 16.072 81.724 14.616C82.764 13.108 83.284 11.366 83.284 9.39C83.284 8.766 83.154 8.09 82.894 7.362C82.686 6.582 82.27 5.932 81.646 5.412C81.022 4.84 80.112 4.554 78.916 4.554C76.212 4.554 73.378 5.36 70.414 6.972C67.502 8.584 64.538 10.716 61.522 13.368C58.506 16.02 55.516 18.984 52.552 22.26C49.588 25.484 46.702 28.786 43.894 32.166C41.138 35.494 38.512 38.614 36.016 41.526C33.572 44.438 31.336 46.908 29.308 48.936ZM15.58 24.21C12.408 24.21 10.094 23.378 8.638 21.714C7.234 20.05 6.532 18.1 6.532 15.864C6.532 14.304 7 12.77 7.936 11.262C8.924 9.702 10.458 8.428 12.538 7.44C14.618 6.4 17.322 5.88 20.65 5.88C22.73 5.88 24.602 6.166 26.266 6.738C27.93 7.258 29.412 7.856 30.712 8.532C32.064 9.208 33.338 9.832 34.534 10.404C35.73 10.924 36.9 11.184 38.044 11.184C39.188 11.184 40.28 10.924 41.32 10.404C42.36 9.832 42.984 9.442 43.192 9.234C43.452 9.026 43.608 8.974 43.66 9.078C43.712 9.182 43.686 9.364 43.582 9.624C43.53 9.78 43.244 10.118 42.724 10.638C42.204 11.158 41.398 11.652 40.306 12.12C39.214 12.536 37.758 12.744 35.938 12.744C34.326 12.744 32.792 12.458 31.336 11.886C29.932 11.314 28.528 10.664 27.124 9.936C25.772 9.208 24.342 8.558 22.834 7.986C21.378 7.414 19.792 7.128 18.076 7.128C15.84 7.128 13.916 7.596 12.304 8.532C10.744 9.468 9.548 10.612 8.716 11.964C7.884 13.316 7.468 14.616 7.468 15.864C7.468 17.788 8.092 19.556 9.34 21.168C10.64 22.728 12.72 23.508 15.58 23.508C17.088 23.508 18.466 23.17 19.714 22.494C21.014 21.766 22.028 20.83 22.756 19.686C23.536 18.542 23.926 17.346 23.926 16.098C23.926 15.786 23.796 15.396 23.536 14.928C23.328 14.46 23.172 14.226 23.068 14.226C23.068 14.226 22.964 14.33 22.756 14.538C22.548 14.694 22.262 14.772 21.898 14.772C21.586 14.772 21.248 14.668 20.884 14.46C20.572 14.252 20.416 13.914 20.416 13.446C20.416 13.03 20.546 12.718 20.806 12.51C21.118 12.25 21.456 12.12 21.82 12.12C22.548 12.12 23.224 12.432 23.848 13.056C24.472 13.68 24.784 14.642 24.784 15.942C24.784 18.334 23.874 20.31 22.054 21.87C20.234 23.43 18.076 24.21 15.58 24.21ZM67.2635 28.11C69.8635 28.11 71.1635 29.358 71.1635 31.854C71.1635 33.778 70.7215 35.754 69.8375 37.782C68.9535 39.758 67.7575 41.578 66.2495 43.242C64.7415 44.854 63.1035 46.18 61.3355 47.22C59.5675 48.208 57.7735 48.702 55.9535 48.702C54.5495 48.702 53.3795 48.364 52.4435 47.688C51.4555 46.96 50.9615 45.79 50.9615 44.178C50.9615 42.67 51.4035 41.006 52.2875 39.186C53.1715 37.314 54.3675 35.546 55.8755 33.882C57.4355 32.218 59.1775 30.84 61.1015 29.748C63.0775 28.656 65.1315 28.11 67.2635 28.11ZM68.1215 29.202C67.2375 29.202 66.1975 29.592 65.0015 30.372C63.8055 31.152 62.5835 32.166 61.3355 33.414C60.0875 34.662 58.9175 36.014 57.8255 37.47C56.7855 38.874 55.9275 40.252 55.2515 41.604C54.6275 42.956 54.3155 44.1 54.3155 45.036C54.3155 46.076 54.6015 46.804 55.1735 47.22C55.7455 47.584 56.3955 47.766 57.1235 47.766C58.3195 47.766 59.6715 47.272 61.1795 46.284C62.6875 45.244 64.1435 43.944 65.5475 42.384C66.9515 40.824 68.0955 39.186 68.9795 37.47C69.9155 35.702 70.3835 34.09 70.3835 32.634C70.3835 31.282 70.1495 30.372 69.6815 29.904C69.2135 29.436 68.6935 29.202 68.1215 29.202ZM69.5255 37.236C69.7855 37.236 69.8895 37.34 69.8375 37.548C69.8375 37.704 69.7075 37.782 69.4475 37.782C69.2395 37.782 68.9275 38.068 68.5115 38.64C68.1475 39.16 67.8095 39.706 67.4975 40.278C67.1855 40.85 67.0295 41.162 67.0295 41.214C67.0295 42.41 67.4715 43.008 68.3555 43.008C69.1875 43.008 70.1235 42.618 71.1635 41.838C72.2555 41.058 73.2955 40.174 74.2835 39.186C75.3235 38.146 76.1555 37.236 76.7795 36.456L77.4035 37.002C76.7275 37.782 75.8695 38.718 74.8295 39.81C73.7895 40.85 72.6975 41.786 71.5535 42.618C70.4095 43.398 69.3435 43.788 68.3555 43.788C67.5235 43.788 66.9515 43.606 66.6395 43.242C66.3275 42.878 66.1715 42.228 66.1715 41.292C66.1715 40.044 66.5875 39.056 67.4195 38.328C68.3035 37.6 69.0055 37.236 69.5255 37.236ZM74.2013 49.794C72.3813 49.794 71.0033 49.456 70.0673 48.78C69.1313 48.104 68.6633 47.194 68.6633 46.05C68.6633 45.218 68.9493 44.49 69.5213 43.866C70.0413 43.19 70.6653 42.67 71.3933 42.306C72.1213 41.89 72.6933 41.682 73.1093 41.682C73.6813 41.682 74.0713 41.812 74.2793 42.072C74.4353 42.28 74.5133 42.514 74.5133 42.774C74.5133 43.19 74.2793 43.528 73.8113 43.788C73.2913 44.048 72.8753 44.178 72.5633 44.178C72.1993 44.178 71.8873 44.074 71.6273 43.866C71.3153 43.606 71.1593 43.476 71.1593 43.476C70.8993 43.528 70.5353 43.814 70.0673 44.334C69.5993 44.854 69.3653 45.426 69.3653 46.05C69.3653 46.674 69.7033 47.272 70.3793 47.844C71.0553 48.416 72.1473 48.702 73.6553 48.702C75.2153 48.702 76.6973 48.182 78.1013 47.142C79.5573 46.102 80.7533 44.776 81.6893 43.164C82.6253 41.552 83.0933 39.914 83.0933 38.25C83.0933 37.678 83.0933 36.924 83.0933 35.988C83.0933 35 83.0933 34.194 83.0933 33.57C83.0933 32.79 83.2233 31.906 83.4833 30.918C83.7433 29.878 84.0293 28.916 84.3413 28.032C84.7053 27.148 84.9913 26.602 85.1993 26.394C85.6153 26.03 85.9273 25.926 86.1353 26.082C86.3433 26.238 86.3953 26.394 86.2913 26.55C86.2393 26.602 85.9013 27.018 85.2773 27.798C84.6533 28.526 83.8733 29.436 82.9373 30.528C82.0013 31.62 81.0653 32.712 80.1293 33.804C79.1933 34.896 78.3613 35.858 77.6333 36.69C76.9573 37.522 76.5673 38.016 76.4633 38.172C76.2033 38.536 75.9693 38.614 75.7613 38.406C75.5533 38.198 75.6053 37.938 75.9173 37.626C76.4893 36.898 77.1913 36.04 78.0233 35.052C78.9073 34.012 79.7913 32.998 80.6753 32.01C81.5593 31.022 82.3133 30.19 82.9373 29.514C83.6133 28.786 83.9773 28.37 84.0293 28.266C84.1853 28.058 84.3153 27.694 84.4193 27.174C84.5753 26.654 84.7573 26.16 84.9653 25.692C85.2253 25.224 85.5373 24.99 85.9013 24.99C86.7853 24.99 87.2273 25.302 87.2273 25.926C87.2273 26.394 86.8633 26.966 86.1353 27.642C85.4593 28.318 85.0693 28.864 84.9653 29.28C84.8093 29.904 84.8093 30.788 84.9653 31.932C85.1733 33.024 85.3813 34.272 85.5893 35.676C85.8493 37.08 85.9793 38.562 85.9793 40.122C85.9793 42.202 85.5633 43.892 84.7313 45.192C83.8993 46.44 82.8593 47.402 81.6113 48.078C80.3633 48.754 79.0633 49.196 77.7113 49.404C76.4113 49.664 75.2413 49.794 74.2013 49.794ZM86.2133 44.412C84.8613 44.412 83.9773 44.152 83.5613 43.632C83.1973 43.112 83.0673 42.514 83.1713 41.838C83.3273 41.11 83.5093 40.46 83.7173 39.888L84.4973 39.966C84.3413 40.486 84.1853 41.032 84.0293 41.604C83.9253 42.176 84.0033 42.67 84.2633 43.086C84.5233 43.502 85.1993 43.71 86.2913 43.71C87.0713 43.71 87.9553 43.346 88.9433 42.618C89.9313 41.89 90.8933 41.006 91.8293 39.966C92.8173 38.926 93.6493 37.912 94.3253 36.924L95.0273 37.47C94.3513 38.302 93.5193 39.264 92.5313 40.356C91.5953 41.448 90.5813 42.41 89.4893 43.242C88.3973 44.022 87.3053 44.412 86.2133 44.412ZM91.797 49.794C89.977 49.794 88.599 49.456 87.663 48.78C86.727 48.104 86.259 47.194 86.259 46.05C86.259 45.218 86.545 44.49 87.117 43.866C87.637 43.19 88.261 42.67 88.989 42.306C89.717 41.89 90.289 41.682 90.705 41.682C91.277 41.682 91.667 41.812 91.875 42.072C92.031 42.28 92.109 42.514 92.109 42.774C92.109 43.19 91.875 43.528 91.407 43.788C90.887 44.048 90.471 44.178 90.159 44.178C89.795 44.178 89.483 44.074 89.223 43.866C88.911 43.606 88.755 43.476 88.755 43.476C88.495 43.528 88.131 43.814 87.663 44.334C87.195 44.854 86.961 45.426 86.961 46.05C86.961 46.674 87.299 47.272 87.975 47.844C88.651 48.416 89.743 48.702 91.251 48.702C92.811 48.702 94.293 48.182 95.697 47.142C97.153 46.102 98.349 44.776 99.285 43.164C100.221 41.552 100.689 39.914 100.689 38.25C100.689 37.678 100.689 36.924 100.689 35.988C100.689 35 100.689 34.194 100.689 33.57C100.689 32.79 100.819 31.906 101.079 30.918C101.339 29.878 101.625 28.916 101.937 28.032C102.301 27.148 102.587 26.602 102.795 26.394C103.211 26.03 103.523 25.926 103.731 26.082C103.939 26.238 103.991 26.394 103.887 26.55C103.835 26.602 103.497 27.018 102.873 27.798C102.249 28.526 101.469 29.436 100.533 30.528C99.597 31.62 98.661 32.712 97.725 33.804C96.789 34.896 95.957 35.858 95.229 36.69C94.553 37.522 94.163 38.016 94.059 38.172C93.799 38.536 93.565 38.614 93.357 38.406C93.149 38.198 93.201 37.938 93.513 37.626C94.085 36.898 94.787 36.04 95.619 35.052C96.503 34.012 97.387 32.998 98.271 32.01C99.155 31.022 99.909 30.19 100.533 29.514C101.209 28.786 101.573 28.37 101.625 28.266C101.781 28.058 101.911 27.694 102.015 27.174C102.171 26.654 102.353 26.16 102.561 25.692C102.821 25.224 103.133 24.99 103.497 24.99C104.381 24.99 104.823 25.302 104.823 25.926C104.823 26.394 104.459 26.966 103.731 27.642C103.055 28.318 102.665 28.864 102.561 29.28C102.405 29.904 102.405 30.788 102.561 31.932C102.769 33.024 102.977 34.272 103.185 35.676C103.445 37.08 103.575 38.562 103.575 40.122C103.575 42.202 103.159 43.892 102.327 45.192C101.495 46.44 100.455 47.402 99.207 48.078C97.959 48.754 96.659 49.196 95.307 49.404C94.007 49.664 92.837 49.794 91.797 49.794ZM103.809 44.412C102.457 44.412 101.573 44.152 101.157 43.632C100.793 43.112 100.663 42.514 100.767 41.838C100.923 41.11 101.105 40.46 101.313 39.888L102.093 39.966C101.937 40.486 101.781 41.032 101.625 41.604C101.521 42.176 101.599 42.67 101.859 43.086C102.119 43.502 102.795 43.71 103.887 43.71C104.667 43.71 105.551 43.346 106.539 42.618C107.527 41.89 108.489 41.006 109.425 39.966C110.413 38.926 111.245 37.912 111.921 36.924L112.623 37.47C111.947 38.302 111.115 39.264 110.127 40.356C109.191 41.448 108.177 42.41 107.085 43.242C105.993 44.022 104.901 44.412 103.809 44.412ZM128.893 34.35C128.685 34.766 128.373 35.13 127.957 35.442C127.593 35.754 127.307 35.962 127.099 36.066C126.943 36.118 126.995 35.962 127.255 35.598C128.191 34.454 128.789 33.388 129.049 32.4C129.361 31.412 129.361 30.632 129.049 30.06C128.789 29.436 128.269 29.124 127.489 29.124C126.449 29.124 125.227 29.54 123.823 30.372C122.419 31.204 120.963 32.296 119.455 33.648C117.999 35 116.621 36.456 115.321 38.016C114.073 39.524 113.059 41.006 112.279 42.462C111.499 43.866 111.109 45.088 111.109 46.128C111.109 46.908 111.265 47.402 111.577 47.61C111.889 47.818 112.201 47.922 112.513 47.922C113.709 47.922 115.087 47.376 116.647 46.284C118.259 45.14 119.897 43.71 121.561 41.994C123.225 40.278 124.811 38.536 126.319 36.768C127.827 34.948 129.127 33.31 130.219 31.854C131.363 30.398 132.143 29.41 132.559 28.89C133.131 29.098 133.807 29.176 134.587 29.124C135.419 29.072 136.121 29.02 136.693 28.968C136.589 29.124 136.043 29.774 135.055 30.918C134.119 32.062 132.975 33.44 131.623 35.052C130.323 36.612 128.997 38.224 127.645 39.888C126.345 41.552 125.253 43.008 124.369 44.256C123.485 45.504 123.043 46.336 123.043 46.752C123.043 47.272 123.147 47.61 123.355 47.766C123.615 47.87 124.005 47.922 124.525 47.922C125.149 47.87 126.059 47.584 127.255 47.064C128.451 46.492 129.985 45.4 131.857 43.788C133.729 42.176 135.991 39.784 138.643 36.612C138.643 36.612 138.747 36.69 138.955 36.846C139.215 37.002 139.345 37.08 139.345 37.08C136.225 40.72 133.339 43.58 130.687 45.66C128.035 47.688 125.617 48.702 123.433 48.702C122.289 48.702 121.509 48.52 121.093 48.156C120.729 47.792 120.547 47.272 120.547 46.596C120.547 46.076 120.755 45.452 121.171 44.724C121.639 43.944 122.159 43.19 122.731 42.462C123.303 41.734 123.771 41.162 124.135 40.746C124.135 40.746 124.083 40.72 123.979 40.668C123.875 40.616 123.823 40.59 123.823 40.59C122.627 42.046 121.353 43.398 120.001 44.646C118.649 45.894 117.297 46.882 115.945 47.61C114.645 48.338 113.371 48.702 112.123 48.702C110.823 48.702 109.913 48.39 109.393 47.766C108.873 47.09 108.613 46.076 108.613 44.724C108.613 43.424 109.029 41.864 109.861 40.044C110.693 38.172 111.889 36.352 113.449 34.584C115.009 32.764 116.881 31.256 119.065 30.06C121.301 28.864 123.797 28.266 126.553 28.266C127.905 28.266 128.841 28.526 129.361 29.046C129.881 29.514 130.115 30.086 130.063 30.762C130.011 31.438 129.855 32.114 129.595 32.79C129.335 33.466 129.101 33.986 128.893 34.35ZM186.97 0.732C187.542 0.835998 188.244 0.887998 189.076 0.887998C189.96 0.887998 190.662 0.835998 191.182 0.732L164.038 38.562C163.206 39.81 162.4 40.98 161.62 42.072C160.84 43.164 160.216 44.126 159.748 44.958C159.228 45.738 158.968 46.362 158.968 46.83C158.968 47.194 159.124 47.454 159.436 47.61C159.696 47.766 160.086 47.844 160.606 47.844C161.802 47.844 163.128 47.428 164.584 46.596C166.04 45.712 167.47 44.62 168.874 43.32C170.33 42.02 171.656 40.746 172.852 39.498C174.1 38.25 175.088 37.236 175.816 36.456L176.362 36.924C175.686 37.652 174.75 38.666 173.554 39.966C172.358 41.266 170.98 42.592 169.42 43.944C167.912 45.244 166.326 46.362 164.662 47.298C163.05 48.234 161.464 48.702 159.904 48.702C159.072 48.702 158.37 48.468 157.798 48C157.174 47.532 156.862 46.856 156.862 45.972C156.862 45.4 157.07 44.672 157.486 43.788C157.902 42.904 158.422 41.994 159.046 41.058C159.618 40.07 160.19 39.186 160.762 38.406C161.282 37.574 161.698 36.95 162.01 36.534L186.97 0.732ZM189.215 28.11C191.815 28.11 193.115 29.358 193.115 31.854C193.115 33.778 192.673 35.754 191.789 37.782C190.905 39.758 189.709 41.578 188.201 43.242C186.693 44.854 185.055 46.18 183.287 47.22C181.519 48.208 179.725 48.702 177.905 48.702C176.501 48.702 175.331 48.364 174.395 47.688C173.407 46.96 172.913 45.79 172.913 44.178C172.913 42.67 173.355 41.006 174.239 39.186C175.123 37.314 176.319 35.546 177.827 33.882C179.387 32.218 181.129 30.84 183.053 29.748C185.029 28.656 187.083 28.11 189.215 28.11ZM190.073 29.202C189.189 29.202 188.149 29.592 186.953 30.372C185.757 31.152 184.535 32.166 183.287 33.414C182.039 34.662 180.869 36.014 179.777 37.47C178.737 38.874 177.879 40.252 177.203 41.604C176.579 42.956 176.267 44.1 176.267 45.036C176.267 46.076 176.553 46.804 177.125 47.22C177.697 47.584 178.347 47.766 179.075 47.766C180.271 47.766 181.623 47.272 183.131 46.284C184.639 45.244 186.095 43.944 187.499 42.384C188.903 40.824 190.047 39.186 190.931 37.47C191.867 35.702 192.335 34.09 192.335 32.634C192.335 31.282 192.101 30.372 191.633 29.904C191.165 29.436 190.645 29.202 190.073 29.202ZM191.477 37.236C191.737 37.236 191.841 37.34 191.789 37.548C191.789 37.704 191.659 37.782 191.399 37.782C191.191 37.782 190.879 38.068 190.463 38.64C190.099 39.16 189.761 39.706 189.449 40.278C189.137 40.85 188.981 41.162 188.981 41.214C188.981 42.41 189.423 43.008 190.307 43.008C191.139 43.008 192.075 42.618 193.115 41.838C194.207 41.058 195.247 40.174 196.235 39.186C197.275 38.146 198.107 37.236 198.731 36.456L199.355 37.002C198.679 37.782 197.821 38.718 196.781 39.81C195.741 40.85 194.649 41.786 193.505 42.618C192.361 43.398 191.295 43.788 190.307 43.788C189.475 43.788 188.903 43.606 188.591 43.242C188.279 42.878 188.123 42.228 188.123 41.292C188.123 40.044 188.539 39.056 189.371 38.328C190.255 37.6 190.957 37.236 191.477 37.236ZM164.25 72.258C163.106 72.258 162.326 72.05 161.91 71.634C161.494 71.218 161.286 70.646 161.286 69.918C161.286 68.878 161.936 67.734 163.236 66.486C164.536 65.29 166.304 64.016 168.54 62.664C170.776 61.364 173.35 60.064 176.262 58.764C179.122 57.464 182.138 56.19 185.31 54.942C189.574 53.278 193.188 51.614 196.152 49.95C199.064 48.286 201.664 46.388 203.952 44.256C206.24 42.072 208.528 39.498 210.816 36.534L211.362 37.002C209.074 40.018 206.76 42.618 204.42 44.802C202.08 46.934 199.428 48.858 196.464 50.574C193.5 52.29 189.886 53.98 185.622 55.644C182.554 56.84 179.642 58.062 176.886 59.31C174.078 60.61 171.582 61.884 169.398 63.132C167.214 64.38 165.498 65.576 164.25 66.72C162.95 67.864 162.3 68.956 162.3 69.996C162.3 70.568 162.508 70.958 162.924 71.166C163.288 71.374 163.834 71.478 164.562 71.478C166.278 71.478 168.072 70.854 169.944 69.606C171.816 68.358 173.766 66.668 175.794 64.536C177.822 62.456 179.902 60.116 182.034 57.516C184.114 54.916 186.194 52.29 188.274 49.638C190.146 47.246 192.018 44.906 193.89 42.618C195.71 40.33 197.374 38.224 198.882 36.3C200.442 34.324 201.69 32.634 202.626 31.23C203.562 29.826 204.056 28.838 204.108 28.266C204.524 28.318 205.2 28.396 206.136 28.5C207.124 28.552 208.034 28.5 208.866 28.344C206.838 30.996 204.29 34.376 201.222 38.484C198.206 42.54 194.878 46.726 191.238 51.042C189.158 53.538 187.104 56.034 185.076 58.53C182.996 61.026 180.89 63.314 178.758 65.394C176.574 67.474 174.312 69.138 171.972 70.386C169.58 71.634 167.006 72.258 164.25 72.258ZM211.206 22.416C210.582 22.416 210.114 22.234 209.802 21.87C209.49 21.454 209.334 20.986 209.334 20.466C209.334 19.894 209.646 19.296 210.27 18.672C210.894 18.048 211.544 17.736 212.22 17.736C212.948 17.736 213.468 17.944 213.78 18.36C214.092 18.724 214.248 19.088 214.248 19.452C214.248 20.232 213.936 20.934 213.312 21.558C212.688 22.13 211.986 22.416 211.206 22.416ZM227.84 34.35C227.632 34.766 227.32 35.13 226.904 35.442C226.54 35.754 226.254 35.962 226.046 36.066C225.89 36.118 225.942 35.962 226.202 35.598C227.138 34.454 227.736 33.388 227.996 32.4C228.308 31.412 228.308 30.632 227.996 30.06C227.736 29.436 227.216 29.124 226.436 29.124C225.396 29.124 224.174 29.54 222.77 30.372C221.366 31.204 219.91 32.296 218.402 33.648C216.946 35 215.568 36.456 214.268 38.016C213.02 39.524 212.006 41.006 211.226 42.462C210.446 43.866 210.056 45.088 210.056 46.128C210.056 46.908 210.212 47.402 210.524 47.61C210.836 47.818 211.148 47.922 211.46 47.922C212.656 47.922 214.034 47.376 215.594 46.284C217.206 45.14 218.844 43.71 220.508 41.994C222.172 40.278 223.758 38.536 225.266 36.768C226.774 34.948 228.074 33.31 229.166 31.854C230.31 30.398 231.09 29.41 231.506 28.89C232.078 29.098 232.754 29.176 233.534 29.124C234.366 29.072 235.068 29.02 235.64 28.968C235.536 29.124 234.99 29.774 234.002 30.918C233.066 32.062 231.922 33.44 230.57 35.052C229.27 36.612 227.944 38.224 226.592 39.888C225.292 41.552 224.2 43.008 223.316 44.256C222.432 45.504 221.99 46.336 221.99 46.752C221.99 47.272 222.094 47.61 222.302 47.766C222.562 47.87 222.952 47.922 223.472 47.922C224.096 47.87 225.006 47.584 226.202 47.064C227.398 46.492 228.932 45.4 230.804 43.788C232.676 42.176 234.938 39.784 237.59 36.612C237.59 36.612 237.694 36.69 237.902 36.846C238.162 37.002 238.292 37.08 238.292 37.08C235.172 40.72 232.286 43.58 229.634 45.66C226.982 47.688 224.564 48.702 222.38 48.702C221.236 48.702 220.456 48.52 220.04 48.156C219.676 47.792 219.494 47.272 219.494 46.596C219.494 46.076 219.702 45.452 220.118 44.724C220.586 43.944 221.106 43.19 221.678 42.462C222.25 41.734 222.718 41.162 223.082 40.746C223.082 40.746 223.03 40.72 222.926 40.668C222.822 40.616 222.77 40.59 222.77 40.59C221.574 42.046 220.3 43.398 218.948 44.646C217.596 45.894 216.244 46.882 214.892 47.61C213.592 48.338 212.318 48.702 211.07 48.702C209.77 48.702 208.86 48.39 208.34 47.766C207.82 47.09 207.56 46.076 207.56 44.724C207.56 43.424 207.976 41.864 208.808 40.044C209.64 38.172 210.836 36.352 212.396 34.584C213.956 32.764 215.828 31.256 218.012 30.06C220.248 28.864 222.744 28.266 225.5 28.266C226.852 28.266 227.788 28.526 228.308 29.046C228.828 29.514 229.062 30.086 229.01 30.762C228.958 31.438 228.802 32.114 228.542 32.79C228.282 33.466 228.048 33.986 227.84 34.35Z" fill="#156039"/>
</svg>