<svg width="112" height="59" viewBox="0 0 112 59" fill="none" xmlns="http://www.w3.org/2000/svg">
<path d="M18.44 3.416C18.9093 3.45867 19.1653 3.58667 19.208 3.8C19.2507 3.97067 19.0373 4.03467 18.568 3.992C16.264 3.77866 14.0667 4.03466 11.976 4.76C9.88533 5.44266 8.02933 6.38133 6.408 7.576C4.82933 8.77066 3.57067 10.0293 2.632 11.352C1.736 12.6747 1.288 13.8267 1.288 14.808C1.288 16.728 2.03467 18.1573 3.528 19.096C5.02133 20.0347 6.94133 20.504 9.288 20.504C11.336 20.504 13.512 20.1627 15.816 19.48C18.12 18.7547 20.3813 17.8373 22.6 16.728C24.8187 15.576 26.824 14.3813 28.616 13.144C30.408 11.864 31.8373 10.6693 32.904 9.56C33.9707 8.45067 34.504 7.55466 34.504 6.872C34.504 6.36 34.2907 6.04 33.864 5.912C33.48 5.74133 33.032 5.656 32.52 5.656C31.112 5.656 29.4053 6.14666 27.4 7.128C25.3947 8.10933 23.24 9.45333 20.936 11.16C18.6747 12.824 16.4347 14.68 14.216 16.728C12.04 18.776 10.0347 20.888 8.2 23.064C6.408 25.1973 4.95733 27.2453 3.848 29.208C2.78133 31.1707 2.248 32.8773 2.248 34.328C2.248 35.9493 2.73867 37.1227 3.72 37.848C4.744 38.5733 5.93867 38.936 7.304 38.936C8.62667 38.936 9.97067 38.5733 11.336 37.848C12.744 37.1227 14.1093 36.184 15.432 35.032C16.7547 33.88 17.928 32.6427 18.952 31.32C20.0187 29.9973 20.8507 28.696 21.448 27.416C22.088 26.136 22.408 25.0267 22.408 24.088C22.408 23.2773 22.1733 22.744 21.704 22.488C21.2773 22.232 20.7653 22.104 20.168 22.104C18.504 22.104 16.8613 22.616 15.24 23.64C13.6187 24.6213 12.1467 25.944 10.824 27.608C9.50133 29.2293 8.43467 31.0213 7.624 32.984C6.856 34.904 6.472 36.824 6.472 38.744C6.472 39.4693 6.6 40.3013 6.856 41.24C7.112 42.1787 7.368 42.9893 7.624 43.672C7.88 44.3973 8.008 44.8453 8.008 45.016C8.05067 45.3147 8.008 45.5493 7.88 45.72C7.752 45.8907 7.56 45.8267 7.304 45.528C7.048 45.272 6.728 44.5467 6.344 43.352C5.96 42.1573 5.768 40.664 5.768 38.872C5.768 36.7387 6.152 34.648 6.92 32.6C7.73067 30.552 8.81867 28.696 10.184 27.032C11.5493 25.3253 13.128 23.9813 14.92 23C16.712 21.976 18.632 21.464 20.68 21.464C21.7467 21.464 22.6853 21.7627 23.496 22.36C24.3067 22.9147 24.712 23.7467 24.712 24.856C24.712 26.1787 24.264 27.672 23.368 29.336C22.5147 31 21.2773 32.6213 19.656 34.2C18.0773 35.736 16.2 37.016 14.024 38.04C11.8907 39.0213 9.56533 39.512 7.048 39.512C4.82933 39.512 3.18667 38.8933 2.12 37.656C1.096 36.376 0.584 34.9893 0.584 33.496C0.584 31.448 1.05333 29.336 1.992 27.16C2.97333 24.984 4.296 22.8293 5.96 20.696C7.624 18.5627 9.52267 16.5573 11.656 14.68C13.7893 12.8027 16.0507 11.16 18.44 9.752C20.872 8.30133 23.304 7.17066 25.736 6.36C28.168 5.50666 30.4933 5.08 32.712 5.08C33.224 5.08 33.7573 5.18666 34.312 5.4C34.8667 5.61333 35.144 6.01866 35.144 6.616C35.144 7.81067 34.5893 9.06933 33.48 10.392C32.4133 11.7147 30.9413 13.016 29.064 14.296C27.2293 15.5333 25.1813 16.664 22.92 17.688C20.6587 18.712 18.3333 19.544 15.944 20.184C13.5973 20.7813 11.3573 21.08 9.224 21.08C6.45067 21.08 4.25333 20.568 2.632 19.544C1.05333 18.4773 0.264 16.6853 0.264 14.168C0.264 12.8453 0.797334 11.5227 1.864 10.2C2.93067 8.83467 4.33867 7.61867 6.088 6.552C7.88 5.48533 9.84267 4.65333 11.976 4.056C14.152 3.45867 16.3067 3.24533 18.44 3.416ZM41.572 22.68C43.7053 22.68 44.772 23.704 44.772 25.752C44.772 27.3307 44.4093 28.952 43.684 30.616C42.9587 32.2373 41.9773 33.7307 40.74 35.096C39.5027 36.4187 38.1587 37.5067 36.708 38.36C35.2573 39.1707 33.7853 39.576 32.292 39.576C31.14 39.576 30.18 39.2987 29.412 38.744C28.6013 38.1467 28.196 37.1867 28.196 35.864C28.196 34.6267 28.5587 33.2613 29.284 31.768C30.0093 30.232 30.9907 28.7813 32.228 27.416C33.508 26.0507 34.9373 24.92 36.516 24.024C38.1373 23.128 39.8227 22.68 41.572 22.68ZM42.276 23.576C41.5507 23.576 40.6973 23.896 39.716 24.536C38.7347 25.176 37.732 26.008 36.708 27.032C35.684 28.056 34.724 29.1653 33.828 30.36C32.9747 31.512 32.2707 32.6427 31.716 33.752C31.204 34.8613 30.948 35.8 30.948 36.568C30.948 37.4213 31.1827 38.0187 31.652 38.36C32.1213 38.6587 32.6547 38.808 33.252 38.808C34.2333 38.808 35.3427 38.4027 36.58 37.592C37.8173 36.7387 39.012 35.672 40.164 34.392C41.316 33.112 42.2547 31.768 42.98 30.36C43.748 28.9093 44.132 27.5867 44.132 26.392C44.132 25.2827 43.94 24.536 43.556 24.152C43.172 23.768 42.7453 23.576 42.276 23.576ZM43.428 30.168C43.6413 30.168 43.7267 30.2533 43.684 30.424C43.684 30.552 43.5773 30.616 43.364 30.616C43.1933 30.616 42.9373 30.8507 42.596 31.32C42.2973 31.7467 42.02 32.1947 41.764 32.664C41.508 33.1333 41.38 33.3893 41.38 33.432C41.38 34.4133 41.7427 34.904 42.468 34.904C43.1507 34.904 43.9187 34.584 44.772 33.944C45.668 33.304 46.5213 32.5787 47.332 31.768C48.1853 30.9147 48.868 30.168 49.38 29.528L49.892 29.976C49.3373 30.616 48.6333 31.384 47.78 32.28C46.9267 33.1333 46.0307 33.9013 45.092 34.584C44.1533 35.224 43.2787 35.544 42.468 35.544C41.7853 35.544 41.316 35.3947 41.06 35.096C40.804 34.7973 40.676 34.264 40.676 33.496C40.676 32.472 41.0173 31.6613 41.7 31.064C42.4253 30.4667 43.0013 30.168 43.428 30.168ZM36.4485 58.84C35.6378 58.84 34.9978 58.584 34.5285 58.072C34.0592 57.6027 33.8245 56.9627 33.8245 56.152C33.8245 54.744 34.5498 52.76 36.0005 50.2C37.4512 47.6827 39.3712 44.6533 41.7605 41.112C44.1072 37.5707 46.6672 33.6667 49.4405 29.4C51.7445 25.8587 54.0058 22.3813 56.2245 18.968C58.4432 15.512 60.5552 12.3973 62.5605 9.624C64.5658 6.85066 66.4005 4.65333 68.0645 3.032C69.7285 1.368 71.1578 0.535999 72.3525 0.535999C73.7605 0.535999 74.4645 1.38933 74.4645 3.096C74.4645 4.46133 74.0165 6.04 73.1205 7.832C72.2672 9.624 71.1152 11.5227 69.6645 13.528C68.2138 15.4907 66.5925 17.4533 64.8005 19.416C63.0085 21.336 61.1738 23.1493 59.2965 24.856C57.4618 26.5627 55.7125 28.0347 54.0485 29.272C52.4272 30.5093 51.0192 31.4053 49.8245 31.96C49.5258 32.088 49.3552 32.024 49.3125 31.768C49.3125 31.4693 49.4618 31.256 49.7605 31.128C50.8698 30.616 52.1925 29.7627 53.7285 28.568C55.3072 27.3307 56.9712 25.88 58.7205 24.216C60.5125 22.5093 62.2618 20.696 63.9685 18.776C65.7178 16.856 67.2965 14.936 68.7045 13.016C70.1125 11.0533 71.2432 9.19733 72.0965 7.448C72.9498 5.656 73.3765 4.09866 73.3765 2.776C73.3765 2.30666 73.2698 1.92266 73.0565 1.624C72.8432 1.28267 72.5658 1.112 72.2245 1.112C71.5418 1.112 70.5605 1.90133 69.2805 3.48C68.0432 5.05867 66.5498 7.23467 64.8005 10.008C63.0512 12.7387 61.0672 15.8747 58.8485 19.416C56.6725 22.9573 54.2832 26.6693 51.6805 30.552C49.7605 33.4107 47.8405 36.2907 45.9205 39.192C44.0005 42.136 42.2512 44.8667 40.6725 47.384C39.0512 49.9013 37.7498 52.0133 36.7685 53.72C35.7872 55.4693 35.2965 56.5787 35.2965 57.048C35.2965 57.4747 35.4458 57.7733 35.7445 57.944C36.0005 58.1147 36.2992 58.2 36.6405 58.2C37.4085 58.2 38.3898 57.56 39.5845 56.28C40.7792 55 41.9952 53.2507 43.2325 51.032C44.4272 48.856 45.4512 46.3813 46.3045 43.608C47.1152 40.8347 47.5205 37.9547 47.5205 34.968C47.5205 34.4987 47.6485 34.2 47.9045 34.072C48.1178 33.944 48.2245 34.0507 48.2245 34.392C48.2245 37.5493 47.8618 40.5787 47.1365 43.48C46.4112 46.424 45.4725 49.048 44.3205 51.352C43.1258 53.656 41.8458 55.4693 40.4805 56.792C39.0725 58.1573 37.7285 58.84 36.4485 58.84ZM53.6645 35.544C52.1712 35.544 50.9338 35.288 49.9525 34.776C49.0138 34.2213 48.2672 33.56 47.7125 32.792C47.1578 32.024 46.7738 31.256 46.5605 30.488C46.3472 29.6773 46.2405 28.9947 46.2405 28.44C46.2405 27.8853 46.4112 27.4373 46.7525 27.096C47.0512 26.712 47.4138 26.52 47.8405 26.52C48.3952 26.52 48.7578 26.6907 48.9285 27.032C49.0992 27.3733 49.1845 27.672 49.1845 27.928C49.1845 28.5253 48.9498 29.0587 48.4805 29.528C47.9685 29.9973 47.6698 30.2747 47.5845 30.36C47.5845 30.36 47.6698 30.5947 47.8405 31.064C47.9685 31.5333 48.2458 32.0667 48.6725 32.664C49.0992 33.2613 49.6965 33.7947 50.4645 34.264C51.2752 34.7333 52.3418 34.968 53.6645 34.968C55.0298 34.968 56.2458 34.7333 57.3125 34.264C58.4218 33.752 59.3605 33.176 60.1285 32.536C60.9392 31.8533 61.5792 31.2133 62.0485 30.616C62.5605 30.0187 62.9018 29.6347 63.0725 29.464L63.6485 29.848C63.5205 30.0187 63.2005 30.4027 62.6885 31C62.1765 31.5973 61.4938 32.2587 60.6405 32.984C59.7872 33.6667 58.7632 34.264 57.5685 34.776C56.4165 35.288 55.1152 35.544 53.6645 35.544ZM50.136 58.84C49.3253 58.84 48.6853 58.584 48.216 58.072C47.7467 57.6027 47.512 56.9627 47.512 56.152C47.512 54.744 48.2373 52.76 49.688 50.2C51.1387 47.6827 53.0587 44.6533 55.448 41.112C57.7947 37.5707 60.3547 33.6667 63.128 29.4C65.432 25.8587 67.6933 22.3813 69.912 18.968C72.1307 15.512 74.2427 12.3973 76.248 9.624C78.2533 6.85066 80.088 4.65333 81.752 3.032C83.416 1.368 84.8453 0.535999 86.04 0.535999C87.448 0.535999 88.152 1.38933 88.152 3.096C88.152 4.46133 87.704 6.04 86.808 7.832C85.9547 9.624 84.8027 11.5227 83.352 13.528C81.9013 15.4907 80.28 17.4533 78.488 19.416C76.696 21.336 74.8613 23.1493 72.984 24.856C71.1493 26.5627 69.4 28.0347 67.736 29.272C66.1147 30.5093 64.7067 31.4053 63.512 31.96C63.2133 32.088 63.0427 32.024 63 31.768C63 31.4693 63.1493 31.256 63.448 31.128C64.5573 30.616 65.88 29.7627 67.416 28.568C68.9947 27.3307 70.6587 25.88 72.408 24.216C74.2 22.5093 75.9493 20.696 77.656 18.776C79.4053 16.856 80.984 14.936 82.392 13.016C83.8 11.0533 84.9307 9.19733 85.784 7.448C86.6373 5.656 87.064 4.09866 87.064 2.776C87.064 2.30666 86.9573 1.92266 86.744 1.624C86.5307 1.28267 86.2533 1.112 85.912 1.112C85.2293 1.112 84.248 1.90133 82.968 3.48C81.7307 5.05867 80.2373 7.23467 78.488 10.008C76.7387 12.7387 74.7547 15.8747 72.536 19.416C70.36 22.9573 67.9707 26.6693 65.368 30.552C63.448 33.4107 61.528 36.2907 59.608 39.192C57.688 42.136 55.9387 44.8667 54.36 47.384C52.7387 49.9013 51.4373 52.0133 50.456 53.72C49.4747 55.4693 48.984 56.5787 48.984 57.048C48.984 57.4747 49.1333 57.7733 49.432 57.944C49.688 58.1147 49.9867 58.2 50.328 58.2C51.096 58.2 52.0773 57.56 53.272 56.28C54.4667 55 55.6827 53.2507 56.92 51.032C58.1147 48.856 59.1387 46.3813 59.992 43.608C60.8027 40.8347 61.208 37.9547 61.208 34.968C61.208 34.4987 61.336 34.2 61.592 34.072C61.8053 33.944 61.912 34.0507 61.912 34.392C61.912 37.5493 61.5493 40.5787 60.824 43.48C60.0987 46.424 59.16 49.048 58.008 51.352C56.8133 53.656 55.5333 55.4693 54.168 56.792C52.76 58.1573 51.416 58.84 50.136 58.84ZM67.352 35.544C65.8587 35.544 64.6213 35.288 63.64 34.776C62.7013 34.2213 61.9547 33.56 61.4 32.792C60.8453 32.024 60.4613 31.256 60.248 30.488C60.0347 29.6773 59.928 28.9947 59.928 28.44C59.928 27.8853 60.0987 27.4373 60.44 27.096C60.7387 26.712 61.1013 26.52 61.528 26.52C62.0827 26.52 62.4453 26.6907 62.616 27.032C62.7867 27.3733 62.872 27.672 62.872 27.928C62.872 28.5253 62.6373 29.0587 62.168 29.528C61.656 29.9973 61.3573 30.2747 61.272 30.36C61.272 30.36 61.3573 30.5947 61.528 31.064C61.656 31.5333 61.9333 32.0667 62.36 32.664C62.7867 33.2613 63.384 33.7947 64.152 34.264C64.9627 34.7333 66.0293 34.968 67.352 34.968C68.7173 34.968 69.9333 34.7333 71 34.264C72.1093 33.752 73.048 33.176 73.816 32.536C74.6267 31.8533 75.2667 31.2133 75.736 30.616C76.248 30.0187 76.5893 29.6347 76.76 29.464L77.336 29.848C77.208 30.0187 76.888 30.4027 76.376 31C75.864 31.5973 75.1813 32.2587 74.328 32.984C73.4747 33.6667 72.4507 34.264 71.256 34.776C70.104 35.288 68.8027 35.544 67.352 35.544ZM79.6955 39.576C77.6902 39.576 76.3675 39.128 75.7275 38.232C75.0875 37.2933 74.7675 36.312 74.7675 35.288C74.7675 33.5387 75.2155 31.9173 76.1115 30.424C77.0075 28.888 78.1595 27.5227 79.5675 26.328C80.9755 25.1333 82.4262 24.216 83.9195 23.576C85.4555 22.8933 86.8208 22.552 88.0155 22.552C88.8688 22.552 89.5515 22.68 90.0635 22.936C90.5755 23.1493 90.8315 23.6187 90.8315 24.344C90.8315 25.0267 90.4262 25.752 89.6155 26.52C88.8048 27.288 87.7808 28.0347 86.5435 28.76C85.3062 29.4427 84.0048 30.0827 82.6395 30.68C81.3168 31.2347 80.1008 31.6827 78.9915 32.024C77.8822 32.3653 77.0715 32.536 76.5595 32.536C76.5595 32.536 76.5595 32.4293 76.5595 32.216C76.5595 31.96 76.5595 31.832 76.5595 31.832C76.9435 31.8747 77.6048 31.7467 78.5435 31.448C79.5248 31.1493 80.6128 30.7653 81.8075 30.296C83.0022 29.784 84.1542 29.208 85.2635 28.568C86.4155 27.928 87.3542 27.2453 88.0795 26.52C88.8475 25.7947 89.2315 25.0907 89.2315 24.408C89.2315 24.0667 89.1248 23.768 88.9115 23.512C88.7408 23.256 88.4208 23.128 87.9515 23.128C87.2688 23.128 86.4368 23.4693 85.4555 24.152C84.5168 24.792 83.5568 25.6453 82.5755 26.712C81.5942 27.7787 80.6768 28.9093 79.8235 30.104C78.9702 31.2987 78.2662 32.4507 77.7115 33.56C77.1995 34.6267 76.9435 35.5227 76.9435 36.248C76.9435 37.1013 77.1995 37.7413 77.7115 38.168C78.2235 38.5947 78.9702 38.808 79.9515 38.808C81.6582 38.808 83.2582 38.4027 84.7515 37.592C86.2875 36.7387 87.6742 35.7573 88.9115 34.648C90.1488 33.496 91.1942 32.4293 92.0475 31.448C92.9008 30.424 93.4768 29.7627 93.7755 29.464C93.7755 29.464 93.8395 29.528 93.9675 29.656C94.1382 29.784 94.2235 29.848 94.2235 29.848C93.9248 30.1893 93.3488 30.872 92.4955 31.896C91.6422 32.92 90.5755 34.0293 89.2955 35.224C88.0155 36.4187 86.5648 37.4427 84.9435 38.296C83.3222 39.1493 81.5728 39.576 79.6955 39.576ZM96.633 39.576C94.6277 39.576 93.305 39.128 92.665 38.232C92.025 37.2933 91.705 36.312 91.705 35.288C91.705 33.5387 92.153 31.9173 93.049 30.424C93.945 28.888 95.097 27.5227 96.505 26.328C97.913 25.1333 99.3637 24.216 100.857 23.576C102.393 22.8933 103.758 22.552 104.953 22.552C105.806 22.552 106.489 22.68 107.001 22.936C107.513 23.1493 107.769 23.6187 107.769 24.344C107.769 25.0267 107.364 25.752 106.553 26.52C105.742 27.288 104.718 28.0347 103.481 28.76C102.244 29.4427 100.942 30.0827 99.577 30.68C98.2543 31.2347 97.0383 31.6827 95.929 32.024C94.8197 32.3653 94.009 32.536 93.497 32.536C93.497 32.536 93.497 32.4293 93.497 32.216C93.497 31.96 93.497 31.832 93.497 31.832C93.881 31.8747 94.5423 31.7467 95.481 31.448C96.4623 31.1493 97.5503 30.7653 98.745 30.296C99.9397 29.784 101.092 29.208 102.201 28.568C103.353 27.928 104.292 27.2453 105.017 26.52C105.785 25.7947 106.169 25.0907 106.169 24.408C106.169 24.0667 106.062 23.768 105.849 23.512C105.678 23.256 105.358 23.128 104.889 23.128C104.206 23.128 103.374 23.4693 102.393 24.152C101.454 24.792 100.494 25.6453 99.513 26.712C98.5317 27.7787 97.6143 28.9093 96.761 30.104C95.9077 31.2987 95.2037 32.4507 94.649 33.56C94.137 34.6267 93.881 35.5227 93.881 36.248C93.881 37.1013 94.137 37.7413 94.649 38.168C95.161 38.5947 95.9077 38.808 96.889 38.808C98.5957 38.808 100.196 38.4027 101.689 37.592C103.225 36.7387 104.612 35.7573 105.849 34.648C107.086 33.496 108.132 32.4293 108.985 31.448C109.838 30.424 110.414 29.7627 110.713 29.464C110.713 29.464 110.777 29.528 110.905 29.656C111.076 29.784 111.161 29.848 111.161 29.848C110.862 30.1893 110.286 30.872 109.433 31.896C108.58 32.92 107.513 34.0293 106.233 35.224C104.953 36.4187 103.502 37.4427 101.881 38.296C100.26 39.1493 98.5103 39.576 96.633 39.576Z" fill="#156039"/>
</svg>